<?xml version="1.0" encoding="utf-8"?>
<!-- Generator: Adobe Illustrator 16.0.0, SVG Export Plug-In . SVG Version: 6.00 Build 0)  -->
<!DOCTYPE svg PUBLIC "-//W3C//DTD SVG 1.1//EN" "http://www.w3.org/Graphics/SVG/1.1/DTD/svg11.dtd">
<svg version="1.1" id="Layer_5" xmlns="http://www.w3.org/2000/svg" xmlns:xlink="http://www.w3.org/1999/xlink" x="0px" y="0px"
	 width="150px" height="150px" viewBox="770.108 589.354 150 150" enable-background="new 770.108 589.354 150 150"
	 xml:space="preserve">
<path fill="#C6E87D" d="M209.403,198.403c-7.045,0-12.774,7.641-12.774,17.032c0,9.392,5.729,17.033,12.774,17.033
	s12.774-7.641,12.774-17.033C222.178,206.044,216.448,198.403,209.403,198.403z M209.403,228.21c-4.536,0-8.516-5.97-8.516-12.775
	c0-6.804,3.979-12.773,8.516-12.773c4.537,0,8.517,5.97,8.517,12.773C217.92,222.24,213.94,228.21,209.403,228.21z M209.403,189.887
	c-11.739,0-21.29,11.46-21.29,25.548c0,11.04,5.876,20.438,14.063,24.001l-3.417,71.806c0,5.869,4.775,10.645,10.645,10.645
	c5.87,0,10.646-4.775,10.644-10.744l-3.415-71.707c8.187-3.563,14.062-12.961,14.062-24.001
	C230.693,201.348,221.143,189.887,209.403,189.887z M215.791,311.242c0,3.521-2.866,6.387-6.388,6.387
	c-3.521,0-6.387-2.865-6.389-6.287l3.364-70.647c0.989,0.17,1.994,0.29,3.024,0.29s2.036-0.119,3.026-0.29L215.791,311.242z
	 M209.403,236.726c-9.392,0-17.032-9.551-17.032-21.291c0-11.739,7.641-21.29,17.032-21.29s17.032,9.551,17.032,21.29
	C226.436,227.175,218.795,236.726,209.403,236.726z M246.661,189.887l-2.767,3.69c-3.021,4.028-4.685,9.02-4.685,14.052v9.936
	c0,9.907,6.193,18.375,14.903,21.793v8.014c0,0.841,0.173,1.639,0.469,2.376c-2.715,0.735-4.727,3.196-4.727,6.14v53.226
	c0,7.045,5.729,12.773,12.773,12.773c7.046,0,12.775-5.729,12.775-12.773v-53.226c0-2.944-2.013-5.405-4.727-6.14
	c0.296-0.737,0.468-1.535,0.468-2.376v-8.014c8.711-3.417,14.903-11.886,14.903-21.793v-9.936c0-5.034-1.664-10.024-4.685-14.052
	l-2.767-3.69h-5.323v23.419c0,1.173-0.953,2.128-2.129,2.128s-2.129-0.955-2.129-2.128v-17.032c0-3.521-2.865-6.387-6.388-6.387
	c-3.521,0-6.387,2.866-6.387,6.387v17.032c0,1.173-0.953,2.128-2.129,2.128s-2.129-0.955-2.129-2.128v-23.419H246.661z
	 M271.146,309.113c0,4.697-3.819,8.516-8.517,8.516c-4.695,0-8.516-3.818-8.516-8.516v-53.226c0-1.173,0.954-2.129,2.129-2.129
	h4.258h4.259h4.258c1.175,0,2.129,0.957,2.129,2.129V309.113z M266.888,247.371c0,1.173-0.953,2.129-2.129,2.129H260.5
	c-1.175,0-2.129-0.956-2.129-2.129v-6.793c1.384,0.255,2.802,0.406,4.258,0.406c1.457,0,2.875-0.151,4.259-0.406V247.371z
	 M254.113,219.693c3.521,0,6.387-2.866,6.387-6.387v-17.032c0-1.173,0.955-2.129,2.129-2.129c1.175,0,2.13,0.956,2.13,2.129v17.032
	c0,3.521,2.865,6.387,6.387,6.387s6.387-2.866,6.387-6.387v-17.741l0.426,0.569c2.471,3.295,3.833,7.379,3.833,11.496v9.934
	c0,10.564-8.595,19.162-19.162,19.162c-10.566,0-19.161-8.598-19.161-19.162v-9.936c0-4.118,1.362-8.202,3.833-11.497l0.426-0.566
	v17.741C247.727,216.828,250.592,219.693,254.113,219.693z M311.598,189.887h-0.682l-0.556,0.398
	c-9.892,7.062-15.796,18.538-15.796,30.692v43.333l-4.215,46.369c-0.03,0.307-0.044,0.619-0.044,0.93
	c0,5.668,4.61,10.277,10.276,10.277h0.74c5.665,0,10.275-4.609,10.275-10.277v-45.076v-2.131c0-3.52,2.865-6.387,6.387-6.387h2.129
	v-59.612C320.113,193.707,316.294,189.887,311.598,189.887z M307.339,311.609c0,3.32-2.7,6.02-6.017,6.02h-0.74
	c-3.318,0-6.018-2.699-6.018-6.02c0-0.178,0.009-0.359,0.025-0.545l4.048-44.531h8.701V311.609z M315.854,253.973
	c-4.164,0.848-7.453,4.137-8.3,8.303h-8.732v-41.298c0-10.53,4.999-20.488,13.406-26.785c2.049,0.306,3.626,2.078,3.626,4.211
	V253.973z M298.822,311.242c0-1.176,0.955-2.129,2.13-2.129s2.129,0.953,2.129,2.129s-0.954,2.129-2.129,2.129
	S298.822,312.418,298.822,311.242z"/>
<linearGradient id="SVGID_1_" gradientUnits="userSpaceOnUse" x1="478.7471" y1="247.083" x2="504.7881" y2="247.083">
	<stop  offset="0" style="stop-color:#B3E052"/>
	<stop  offset="1" style="stop-color:#F6E46F"/>
</linearGradient>
<path fill="url(#SVGID_1_)" d="M504.788,262.708h-20.833c-4.202,0-6.695-4.961-4.167-8.333l9.375-12.5h-10.416v-10.417h20.833
	c4.202,0,6.694,4.961,4.167,8.333l-9.375,12.501h10.416V262.708z"/>
<linearGradient id="SVGID_2_" gradientUnits="userSpaceOnUse" x1="463.1221" y1="208.021" x2="489.1641" y2="208.021">
	<stop  offset="0" style="stop-color:#B3E052"/>
	<stop  offset="1" style="stop-color:#F6E46F"/>
</linearGradient>
<path fill="url(#SVGID_2_)" d="M489.163,221.042H468.33c-4.533,0-6.898-5.677-3.683-8.892l6.734-6.733h-8.26V195h20.833
	c4.533,0,6.897,5.676,3.683,8.891l-6.733,6.734h8.26L489.163,221.042L489.163,221.042z"/>
<linearGradient id="SVGID_3_" gradientUnits="userSpaceOnUse" x1="390.0449" y1="257.5" x2="458.0742" y2="257.5">
	<stop  offset="0" style="stop-color:#B3E052"/>
	<stop  offset="1" style="stop-color:#F6E46F"/>
</linearGradient>
<path fill="url(#SVGID_3_)" d="M451.438,224.508c-1.335-1.492-2.829-2.804-4.441-3.935c-0.655-4.029-2.007-8.701-4.355-13.054
	c-4.354-8.072-10.953-12.52-18.581-12.52c-7.629,0-14.227,4.447-18.581,12.52c-2.349,4.353-3.7,9.024-4.355,13.054
	c-1.612,1.131-3.107,2.442-4.441,3.935c-4.934,5.512-7.295,12.891-6.478,20.243l5.787,52.083
	C397.458,310.041,408.585,320,421.873,320h4.373c13.288,0,24.415-9.959,25.883-23.166l5.787-52.083
	C458.732,237.398,456.371,230.02,451.438,224.508z"/>
<path fill="#FFFFFF" d="M456.5,257.5l1.156-10.417h-30.993V226.25h-5.208v20.833h-30.992l1.157,10.417h29.836v10.417h-28.679
	l1.157,10.416h27.521v10.417h-26.364l0.898,8.084c0.088,0.79,0.213,1.568,0.367,2.333h25.098v20.823
	c0.14,0.002,0.277,0.01,0.418,0.01h4.373c0.14,0,0.277-0.008,0.418-0.01v-20.823h25.098c0.154-0.765,0.279-1.543,0.367-2.333
	l0.898-8.084h-26.364v-10.417h27.521l1.157-10.416h-28.679V257.5H456.5z"/>
<path fill="#C6E87D" d="M424.06,236.667c-12.097,0-18.229-3.505-18.229-10.417c0-0.793,0.046-1.663,0.136-2.576
	c3.097-1.727,6.556-2.632,10.12-2.632h15.946c3.565,0,7.023,0.905,10.12,2.632c0.09,0.913,0.136,1.783,0.136,2.576
	C442.288,233.162,436.156,236.667,424.06,236.667z"/>
<linearGradient id="SVGID_4_" gradientUnits="userSpaceOnUse" x1="405.8301" y1="229.1626" x2="441.7568" y2="229.1626">
	<stop  offset="0" style="stop-color:#B3E052"/>
	<stop  offset="1" style="stop-color:#F6E46F"/>
</linearGradient>
<path fill="url(#SVGID_4_)" d="M429.268,231.458c-11.725,0-17.829-3.303-18.194-9.799c-1.776,0.441-3.492,1.112-5.107,2.014
	c-0.09,0.914-0.136,1.783-0.136,2.576c0,6.912,6.133,10.417,18.229,10.417c10.069,0,15.991-2.438,17.697-7.239
	C438.759,230.777,434.592,231.458,429.268,231.458z"/>
<linearGradient id="SVGID_5_" gradientUnits="userSpaceOnUse" x1="579" y1="293.1875" x2="704.8516" y2="293.1875">
	<stop  offset="0" style="stop-color:#B3E052"/>
	<stop  offset="1" style="stop-color:#F6E46F"/>
</linearGradient>
<path fill="url(#SVGID_5_)" d="M641.926,312c-1.222,0-2.444-0.416-3.44-1.246l-28.479-23.731l-23.404,23.403L579,302.824
	l26.875-26.875c1.966-1.966,5.106-2.109,7.241-0.329l28.81,24.008l28.81-24.008c2.136-1.778,5.275-1.638,7.241,0.329l26.875,26.875
	l-7.602,7.602l-23.404-23.404l-28.479,23.732C644.37,311.584,643.147,312,641.926,312z"/>
<linearGradient id="SVGID_6_" gradientUnits="userSpaceOnUse" x1="604.3008" y1="231.3672" x2="679.5508" y2="231.3672">
	<stop  offset="0" style="stop-color:#B3E052"/>
	<stop  offset="1" style="stop-color:#F6E46F"/>
</linearGradient>
<path fill="url(#SVGID_6_)" d="M641.926,183c-20.747,0-37.625,16.879-37.625,37.625c0,29.059,32.788,56.717,34.185,57.879
	c1.969,1.641,4.912,1.641,6.881,0c1.396-1.162,34.185-28.82,34.185-57.879C679.551,199.879,662.673,183,641.926,183z"/>
<linearGradient id="SVGID_7_" gradientUnits="userSpaceOnUse" x1="604.3008" y1="231.3672" x2="647.3008" y2="231.3672">
	<stop  offset="0" style="stop-color:#B3E052"/>
	<stop  offset="1" style="stop-color:#F6E46F"/>
</linearGradient>
<path fill="url(#SVGID_7_)" d="M615.051,220.625c0-18.922,14.041-34.618,32.25-37.234c-1.757-0.253-3.55-0.391-5.375-0.391
	c-20.747,0-37.625,16.879-37.625,37.625c0,29.059,32.788,56.717,34.185,57.879c1.969,1.641,4.912,1.641,6.881,0
	c0.178-0.148,0.868-0.729,1.935-1.687C640.008,270.264,615.051,245.979,615.051,220.625z"/>
<path fill="none" stroke="#5D5D5D" stroke-width="2" stroke-miterlimit="10" d="M641.926,204.5c-8.891,0-16.125,7.233-16.125,16.125
	s7.234,16.125,16.125,16.125s16.125-7.233,16.125-16.125S650.816,204.5,641.926,204.5z"/>
<path fill="#F6FBE9" d="M641.926,247.5c-14.818,0-26.875-12.057-26.875-26.875c0-14.819,12.057-26.875,26.875-26.875
	s26.875,12.056,26.875,26.875C668.801,235.443,656.744,247.5,641.926,247.5z M641.926,204.5c-8.891,0-16.125,7.234-16.125,16.125
	s7.234,16.125,16.125,16.125s16.125-7.234,16.125-16.125S650.816,204.5,641.926,204.5z"/>
<text transform="matrix(1 0 0 1 211.5 348.5)" font-family="'MyriadPro-Regular'" font-size="12">Alimentación</text>
<text transform="matrix(1 0 0 1 423.5 351.5)" font-family="'MyriadPro-Regular'" font-size="12">Camping</text>
<text transform="matrix(1 0 0 1 590.5 343.5)" font-family="'MyriadPro-Regular'" font-size="12">Guia</text>
<g>
	<linearGradient id="SVGID_8_" gradientUnits="userSpaceOnUse" x1="829.126" y1="248.4053" x2="891.8955" y2="248.4053">
		<stop  offset="0" style="stop-color:#B3E052"/>
		<stop  offset="1" style="stop-color:#F6E46F"/>
	</linearGradient>
	<path fill="url(#SVGID_8_)" d="M888.452,195.531c-2.172-0.663-4.584,0.302-5.67,2.292l-53.069,96.488
		c-1.266,2.354-0.421,5.248,1.931,6.574c0.724,0.361,1.507,0.604,2.352,0.604h43.42c2.474,0,4.522-1.871,4.824-4.342l9.648-96.49
		C892.009,198.306,890.622,196.194,888.452,195.531z"/>
	<linearGradient id="SVGID_9_" gradientUnits="userSpaceOnUse" x1="776.084" y1="229.0757" x2="809.8125" y2="229.0757">
		<stop  offset="0" style="stop-color:#B3E052"/>
		<stop  offset="1" style="stop-color:#F6E46F"/>
	</linearGradient>
	<path fill="url(#SVGID_9_)" d="M809.691,237.564l-4.824-19.298c-0.663-2.593-3.256-4.16-5.85-3.498
		c-0.844,0.242-1.628,0.663-2.23,1.266l-19.299,19.297c-3.016,2.956-0.844,8.203,3.378,8.203h24.122c2.653,0,4.824-2.17,4.824-4.825
		C809.813,238.288,809.753,237.926,809.691,237.564z"/>
	<linearGradient id="SVGID_10_" gradientUnits="userSpaceOnUse" x1="795.3389" y1="258.0137" x2="838.7588" y2="258.0137">
		<stop  offset="0" style="stop-color:#B3E052"/>
		<stop  offset="1" style="stop-color:#F6E46F"/>
	</linearGradient>
	<path fill="url(#SVGID_10_)" d="M838.338,294.674l-33.772-77.191c-1.085-2.412-3.92-3.559-6.332-2.472
		c-1.748,0.722-2.895,2.472-2.895,4.402v77.191c0,2.652,2.172,4.824,4.824,4.824h33.771c2.653,0,4.824-2.172,4.824-4.824
		C838.759,295.939,838.64,295.277,838.338,294.674z"/>
	<linearGradient id="SVGID_11_" gradientUnits="userSpaceOnUse" x1="795.2988" y1="262.8184" x2="882.1797" y2="262.8184">
		<stop  offset="0" style="stop-color:#B3E052"/>
		<stop  offset="1" style="stop-color:#F6E46F"/>
	</linearGradient>
	<path fill="url(#SVGID_11_)" d="M881.516,294.191l-38.596-67.542c-1.327-2.291-4.28-3.136-6.572-1.809
		c-0.724,0.421-1.388,1.025-1.811,1.809l-38.595,67.542c-1.327,2.291-0.543,5.246,1.809,6.572c0.725,0.424,1.567,0.664,2.412,0.664
		h77.192c2.653,0,4.824-2.172,4.824-4.824C882.18,295.76,881.938,294.914,881.516,294.191z"/>
	<linearGradient id="SVGID_12_" gradientUnits="userSpaceOnUse" x1="795.3594" y1="262.832" x2="838.8193" y2="262.832">
		<stop  offset="0" style="stop-color:#B3E052"/>
		<stop  offset="1" style="stop-color:#F6E46F"/>
	</linearGradient>
	<path fill="url(#SVGID_12_)" d="M834.599,226.649l-38.597,67.542c-1.325,2.291-0.542,5.246,1.81,6.572
		c0.724,0.424,1.568,0.664,2.412,0.664h38.596v-77.191C837.011,224.237,835.442,225.142,834.599,226.649z"/>
</g>
<text transform="matrix(1 0 0 1 785.5234 354.5098)" font-family="'MyriadPro-Regular'" font-size="12">Avistamiento</text>
<path fill="#C6E87D" d="M976.283,244.49h-3.915c-2.158,0-3.915,1.756-3.915,3.915v11.743c0,2.158,1.757,3.914,3.915,3.914h3.915
	c2.158,0,3.914-1.756,3.914-3.914v-11.743C980.197,246.246,978.441,244.49,976.283,244.49z M976.283,260.148l-3.915,0.002v-11.745
	h3.915V260.148z M1074.146,273.85c0,1.08-0.877,1.957-1.957,1.957s-1.959-0.877-1.959-1.957c0-1.082,0.879-1.957,1.959-1.957
	S1074.146,272.768,1074.146,273.85z M1064.358,213.175c4.318,0,7.83-3.511,7.83-7.829c0-4.316-3.512-7.828-7.83-7.828
	c-4.316,0-7.828,3.512-7.828,7.828C1056.53,209.664,1060.042,213.175,1064.358,213.175z M1064.358,201.432
	c2.158,0,3.916,1.756,3.916,3.914c0,2.159-1.758,3.915-3.916,3.915s-3.914-1.756-3.914-3.915
	C1060.444,203.188,1062.2,201.432,1064.358,201.432z M1072.188,224.918h-0.441l6.357-11.652c1.25-2.295,1.912-4.887,1.912-7.498
	v-0.422c0-8.633-7.023-15.657-15.658-15.657c-8.633,0-15.656,7.024-15.656,15.657v0.422c0,0.69,0.051,1.381,0.145,2.064
	l-22.853,6.664c-1.644-3.098-4.866-5.235-8.61-5.235c-3.043,0-5.732,1.427-7.528,3.613l-20.303-10.687
	c0.253-0.867,0.431-1.766,0.431-2.713c0-5.396-4.391-9.786-9.786-9.786s-9.786,4.39-9.786,9.786s4.391,9.786,9.786,9.786
	c3.044,0,5.732-1.427,7.529-3.613l20.302,10.687c-0.252,0.867-0.431,1.766-0.431,2.713c0,2.211,0.766,4.231,2.009,5.871h-39.195
	c-5.396,0-9.786,4.391-9.786,9.787v39.145c0,5.396,4.39,9.785,9.786,9.785h35.23v4.961c-13.66,1.98-13.701,5.57-13.701,6.783v7.828
	c0,7.609,26.354,7.83,29.358,7.83s29.36-0.221,29.36-7.83v-7.828c0-1.213-0.041-4.803-13.701-6.783v-4.961h35.23
	c5.395,0,9.785-4.389,9.785-9.785v-39.145C1081.974,229.309,1077.583,224.918,1072.188,224.918L1072.188,224.918z M980.197,205.346
	c-3.237,0-5.872-2.635-5.872-5.871s2.635-5.871,5.872-5.871s5.872,2.635,5.872,5.871S983.435,205.346,980.197,205.346z
	 M1052.616,205.346c0-6.477,5.266-11.742,11.742-11.742s11.744,5.266,11.744,11.742v0.422c0,1.959-0.496,3.904-1.434,5.625
	l-9.133,16.744c-0.471,0.859-1.881,0.859-2.352,0l-9.135-16.744c-0.939-1.721-1.434-3.666-1.434-5.625V205.346z M988.025,228.833
	h19.572v1.957c0,3.237-2.635,5.872-5.871,5.872h-13.701V228.833z M988.025,252.319h13.701c3.236,0,5.871,2.634,5.871,5.872v21.529
	h-19.572V252.319z M1001.727,248.405h-13.701v-7.829h13.701c5.396,0,9.786-4.391,9.786-9.786v-1.957h11.743v17.615
	c0,5.396,4.391,9.786,9.788,9.786h29.357v11.744h-29.357c-5.397,0-9.788,4.389-9.788,9.785v1.957h-11.743v-21.529
	C1011.513,252.795,1007.122,248.405,1001.727,248.405z M1059.747,230.01c0.592,1.084,1.551,1.863,2.654,2.311v19.999h-29.357
	c-3.238,0-5.874-2.634-5.874-5.871v-17.615h31.937L1059.747,230.01z M1027.17,277.764c0-3.238,2.636-5.871,5.874-5.871h29.357v7.828
	h-35.231V277.764z M1049.845,211.619c0.225,0.563,0.477,1.113,0.768,1.646l6.357,11.652h-31.805c1.24-1.64,2.005-3.66,2.005-5.871
	c0-0.271-0.058-0.526-0.08-0.793L1049.845,211.619z M1011.513,219.047c0-3.237,2.635-5.872,5.871-5.872
	c3.237,0,5.872,2.635,5.872,5.872c0,3.236-2.635,5.871-5.872,5.871C1014.147,224.918,1011.513,222.283,1011.513,219.047z
	 M964.539,273.85v-39.145c0-3.238,2.635-5.872,5.872-5.872h13.7v50.888h-13.7C967.174,279.721,964.539,277.086,964.539,273.85z
	 M1021.299,307.121c-15.041,0-24.273-2.578-25.443-4.086v-3.342c7.454,3.385,23.163,3.514,25.443,3.514s17.991-0.129,25.444-3.514
	v3.342C1045.573,304.543,1036.341,307.121,1021.299,307.121z M1021.299,299.293c-14.44,0-23.528-2.379-25.266-3.9
	c0.816-0.66,3.703-1.994,10.422-2.957c1.018,1.75,2.891,2.943,5.058,2.943h19.574c2.166,0,4.039-1.193,5.057-2.943
	c6.717,0.963,9.607,2.297,10.422,2.957C1044.829,296.914,1035.741,299.293,1021.299,299.293z M1033.044,289.508
	c0,1.078-0.877,1.955-1.957,1.955h-19.574c-1.08,0-1.957-0.877-1.957-1.955v-5.873h23.488V289.508z M1072.188,279.721h-5.873v-47.4
	c1.107-0.447,2.064-1.227,2.654-2.311l0.643-1.177h2.576c3.236,0,5.871,2.634,5.871,5.872v6.302l-7.83,1.956v22.631l7.83,1.955
	v6.301C1078.06,277.086,1075.425,279.721,1072.188,279.721z M1078.06,245.041v18.474l-3.914-0.981V246.02L1078.06,245.041z
	 M1019.342,260.148h-3.914v-3.914h3.914V260.148z M1019.342,252.319h-3.914v-3.914h3.914V252.319z M1019.342,275.807h-3.914v-3.914
	h3.914V275.807z M1019.342,267.979h-3.914v-3.916h3.914V267.979z M1019.342,244.49h-3.914v-3.914h3.914V244.49z M1019.342,236.662
	h-3.914v-3.915h3.914V236.662z M1035.001,264.063h-3.914v-3.914h3.914V264.063z M1042.829,264.063h-3.914v-3.914h3.914V264.063z
	 M1027.17,264.063h-3.914v-3.914h3.914V264.063z M1058.487,264.063h-3.914v-3.914h3.914V264.063z M1050.659,264.063h-3.916v-3.914
	h3.916V264.063z"/>
<text transform="matrix(1 0 0 1 969.9736 349)" font-family="'MyriadPro-Regular'" font-size="12">Guía</text>
<linearGradient id="SVGID_13_" gradientUnits="userSpaceOnUse" x1="199.0391" y1="407.5273" x2="241.625" y2="407.5273">
	<stop  offset="0" style="stop-color:#B3E052"/>
	<stop  offset="1" style="stop-color:#F6E46F"/>
</linearGradient>
<path fill="url(#SVGID_13_)" d="M238.912,382.952c-1.686-1.041-3.791-1.137-5.564-0.25l-22.872,11.437
	c-1.935,0.968-3.161,2.947-3.161,5.111v19.34l-8.276,4.138l5.116,10.229l11.436-5.719c1.937-0.969,3.162-2.949,3.162-5.115v-19.338
	l11.436-5.719v10.087l-8.275,4.137l5.115,10.229l11.436-5.719c1.937-0.968,3.162-2.947,3.162-5.113v-22.874
	C241.624,385.832,240.597,383.994,238.912,382.952z"/>
<linearGradient id="SVGID_14_" gradientUnits="userSpaceOnUse" x1="267.6572" y1="487.583" x2="310.2451" y2="487.583">
	<stop  offset="0" style="stop-color:#B3E052"/>
	<stop  offset="1" style="stop-color:#F6E46F"/>
</linearGradient>
<path fill="url(#SVGID_14_)" d="M307.532,463.008c-1.686-1.041-3.79-1.137-5.563-0.249l-22.874,11.436
	c-1.935,0.969-3.158,2.946-3.16,5.111v19.339l-8.277,4.138l5.117,10.229l11.437-5.719c1.937-0.97,3.16-2.948,3.16-5.115V482.84
	l11.437-5.719v10.087l-8.276,4.138l5.117,10.229l11.436-5.718c1.937-0.969,3.161-2.949,3.161-5.114v-22.874
	C310.242,465.888,309.217,464.049,307.532,463.008z"/>
<path fill="#C6E87D" d="M284.848,401.674c-1.548-2.617-4.869-3.565-7.564-2.161c-5.032,2.62-30.33,16.396-34.275,30.207
	c-4.339,15.182,4.452,31.007,19.637,35.346c2.566,0.735,5.226,1.109,7.897,1.111c12.748-0.034,23.938-8.493,27.447-20.749
	C301.937,431.617,287.732,406.557,284.848,401.674L284.848,401.674z"/>
<path fill="#C6E87D" d="M281.979,461.174c-2.672-0.001-5.331-0.377-7.897-1.113c-15.185-4.339-23.975-20.162-19.638-35.345
	c2.865-10.027,16.987-20.034,26.432-25.768c-1.228-0.211-2.49-0.012-3.592,0.564c-5.032,2.62-30.33,16.396-34.275,30.207
	c-4.339,15.182,4.452,31.007,19.637,35.346c2.566,0.735,5.226,1.109,7.897,1.111c4.846-0.003,9.611-1.247,13.842-3.609
	c1.033-0.577,2.027-1.215,2.983-1.913C285.591,461.001,283.787,461.174,281.979,461.174z"/>
<path fill="#C6E87D" d="M234.849,443.799c-11.319-8.844-39.878-5.086-45.488-4.244c-3.005,0.452-5.132,3.175-4.842,6.199
	c0.54,5.647,3.81,34.266,15.129,43.109c12.475,9.682,30.435,7.417,40.117-5.055C249.406,471.389,247.209,453.516,234.849,443.799
	L234.849,443.799z"/>
<path fill="#C6E87D" d="M224.366,484.903c-6.369,0.008-12.556-2.122-17.57-6.047c-9.796-7.652-13.562-30.102-14.747-39.67
	c-1.14,0.143-2.062,0.275-2.688,0.368c-3.005,0.452-5.132,3.175-4.842,6.199c0.54,5.647,3.81,34.266,15.129,43.109
	c12.444,9.719,30.412,7.512,40.132-4.934c1.524-1.95,2.788-4.094,3.761-6.369C238.278,482.296,231.446,484.912,224.366,484.903z"/>
<linearGradient id="SVGID_15_" gradientUnits="userSpaceOnUse" x1="199.0327" y1="467.3984" x2="281.5752" y2="467.3984">
	<stop  offset="0" style="stop-color:#B3E052"/>
	<stop  offset="1" style="stop-color:#F6E46F"/>
</linearGradient>
<path fill="url(#SVGID_15_)" d="M270.293,415.464c-1.962,11.785-6.057,19.068-10.799,27.503
	c-5.729,10.193-11.978,21.321-15.358,41.592c-4.17-7.635-9.435-14.619-15.624-20.733c-7.182-7.236-15.39-13.378-24.359-18.227
	l-5.12,10.227c0.425,0.213,42.592,21.94,42.592,63.508h11.436c0-41.575,8.341-56.414,16.405-70.763
	c4.825-8.587,9.815-17.464,12.109-31.227L270.293,415.464z"/>
<text transform="matrix(1 0 0 1 219.2031 545.7715)" font-family="'MyriadPro-Regular'" font-size="12">Avistamiento</text>
<path fill="#ECF7D4" d="M492.067,531.692l-51.093-83.608c-2.205-3.608-7.621-3.608-9.826,0l-46.905,76.754v6.854H492.067z"/>
<path fill="#C6E87D" d="M415.24,474.116l-30.997,50.722v6.854h107.824l-35.185-57.576H415.24z"/>
<path fill="#BDE468" d="M415.24,474.116l-30.997,50.722v6.854h7.916l34.772-57.576H415.24z"/>
<path fill="#E3F4BE" d="M441.818,449.467l-0.844-1.384c-2.205-3.608-7.621-3.608-9.826,0l-15.908,26.033h11.691L441.818,449.467z"/>
<path fill="#ECF7D4" d="M522.425,525.025l-29.642-48.168c-2.209-3.589-7.6-3.589-9.808,0l-33.744,54.835h73.193V525.025z"/>
<path fill="#E3F4BE" d="M492.783,476.857c-2.209-3.589-7.6-3.589-9.808,0l-33.744,54.835h10.074l33.612-54.617L492.783,476.857z"/>
<linearGradient id="SVGID_16_" gradientUnits="userSpaceOnUse" x1="239.9238" y1="120.0469" x2="281.2004" y2="161.3235" gradientTransform="matrix(1 0 0 -1 234 657)">
	<stop  offset="0" style="stop-color:#B3E052"/>
	<stop  offset="1" style="stop-color:#F6E46F"/>
</linearGradient>
<path fill="url(#SVGID_16_)" d="M470.489,497.146l-21.258,34.546h73.193v-6.667l-17.155-27.879H470.489z"/>
<path fill="#F6FBE9" d="M505.152,428.057h-0.987c-2.376-6.702-8.779-11.516-16.286-11.516c-7.506,0-13.909,4.813-16.285,11.516
	h-0.987c-9.523,0-17.271,7.748-17.271,17.272c0,3.179,2.577,5.758,5.756,5.758h57.577c3.179,0,5.757-2.579,5.757-5.758
	C522.425,435.805,514.676,428.057,505.152,428.057z"/>
<path fill="#ECF7D4" d="M459.091,439.572c0-3.291,0.927-6.368,2.529-8.988c-4.965,3.037-8.285,8.51-8.285,14.745
	c0,3.179,2.577,5.758,5.756,5.758h57.577c3.179,0,5.757-2.579,5.757-5.758h-57.576C461.67,445.329,459.091,442.751,459.091,439.572z
	"/>
<path fill="#F6FBE9" d="M418.789,393.511c-7.507,0-13.911,4.813-16.287,11.516h-0.986c-9.523,0-17.272,7.747-17.272,17.272
	c0,3.18,2.577,5.758,5.757,5.758h57.577c3.179,0,5.758-2.578,5.758-5.758c0-9.525-7.75-17.272-17.273-17.272h-0.987
	C432.698,398.324,426.295,393.511,418.789,393.511"/>
<path fill="#ECF7D4" d="M390,416.541c0-3.29,0.926-6.367,2.529-8.987c-4.965,3.038-8.286,8.51-8.286,14.745
	c0,3.18,2.577,5.758,5.757,5.758h57.577c3.179,0,5.758-2.578,5.758-5.758h-57.576C392.579,422.299,390,419.72,390,416.541z"/>
<linearGradient id="SVGID_17_" gradientUnits="userSpaceOnUse" x1="-271.7749" y1="740.3613" x2="-271.7749" y2="754.1719" gradientTransform="matrix(8 0 0 -8 2218.5 6232.5)">
	<stop  offset="0" style="stop-color:#B3E052"/>
	<stop  offset="1" style="stop-color:#F6E46F"/>
</linearGradient>
<path fill="url(#SVGID_17_)" d="M78.156,202.693c-1.919,0-3.743,0.521-5.346,1.463v-5.027H54.991v6.084l1.044,1.044H28.064
	c0.467-2.289,0.087-4.309-1.268-5.663c-2.988-2.99-9.209-1.275-14.471,3.984c-0.551,0.549-1.053,1.112-1.523,1.679h-21.744v42.768
	h3.564v53.458H6.878v-14.256h3.564v21.384h14.256v-7.128h39.203v7.128h14.255v-21.384h3.564v14.256h14.256v-53.458h3.563v-42.768
	H86.104C84.144,204.076,81.313,202.693,78.156,202.693z M78.156,206.257c3.932,0,7.128,3.197,7.128,7.128
	c0,3.932-3.196,7.128-7.128,7.128c-0.048,0-0.094-0.014-0.142-0.014c-0.357-2.445-1.421-4.737-3.106-6.589
	c-1.205-1.321-1.893-3.153-2.037-5.199C74.229,207.166,76.107,206.257,78.156,206.257z M58.556,202.693h10.691v5.264
	c0,3.245,1.076,6.212,3.027,8.355c1.495,1.64,2.318,3.764,2.318,5.982c0,2.541-1.091,4.97-2.99,6.659
	c-1.926,1.712-4.412,2.493-7.005,2.187c-3.872-0.455-7.115-3.569-7.71-7.408c-0.414-2.656,0.31-5.226,2.036-7.232
	c2.061-2.392,3.195-5.397,3.195-8.461v-0.737l-3.563-3.564V202.693z M28.262,216.949c0,3.863-5.713,7.128-12.474,7.128
	s-12.474-3.265-12.474-7.128c0-2.014,1.64-3.93,4.243-5.27c-1.091,2.981-0.896,5.688,0.786,7.37
	c0.989,0.989,2.334,1.463,3.883,1.463c3.124,0,7.071-1.932,10.588-5.449c0.89-0.889,1.668-1.805,2.349-2.729
	C27.142,213.638,28.262,215.267,28.262,216.949z M3.314,223.738c2.917,2.395,7.381,3.902,12.474,3.902s9.557-1.508,12.474-3.902
	v0.339c0,3.862-5.713,7.127-12.474,7.127s-12.474-3.265-12.474-7.127V223.738z M14.846,207.099c1.908-1.909,4.134-3.381,6.104-4.038
	c0.731-0.244,1.406-0.365,1.97-0.365c0.604,0,1.08,0.139,1.357,0.417c1.11,1.11,0.11,5.337-3.982,9.43
	c-1.908,1.908-4.134,3.381-6.105,4.038c-1.515,0.504-2.787,0.484-3.327-0.054C9.753,215.418,10.752,211.193,14.846,207.099z
	 M3.314,298.919h-7.127v-49.895h7.127v10.691h-3.563v28.511h3.563V298.919z M3.314,284.663V281.1h81.97v3.563H3.314z M3.314,277.535
	v-14.256h81.97v14.256H3.314z M6.878,259.716v-10.691h74.842v10.691H6.878z M14.006,306.047v-17.82h7.127v17.82H14.006z
	 M24.698,298.919v-10.692h39.203v10.692H24.698z M74.593,306.047h-7.128v-17.82h7.128V306.047z M92.412,298.919h-7.128v-10.692
	h3.564v-28.511h-3.564v-10.691h7.128V298.919z M-7.377,245.46v-3.563H95.977v3.563H-7.377z M95.977,209.821v28.511H-7.377v-28.511
	H3.789c-2.542,1.904-4.038,4.41-4.038,7.128v7.128c0,5.994,7.044,10.691,16.037,10.691c8.994,0,16.038-4.697,16.038-10.691v-7.128
	c0-2.702-1.458-5.2-4.051-7.128h30.576c-0.318,1.577-1.033,3.083-2.129,4.354c-2.384,2.771-3.427,6.455-2.858,10.105
	c0.838,5.387,5.387,9.762,10.816,10.398c0.492,0.057,0.983,0.085,1.474,0.085c3.058,0,6.024-1.111,8.316-3.15
	c2.214-1.967,3.625-4.652,4.044-7.547c0.046,0.002,0.094,0.01,0.142,0.01c5.896,0,10.692-4.796,10.692-10.692
	c0-1.251-0.229-2.446-0.624-3.563H95.977z"/>
<text transform="matrix(1 0 0 1 22.3945 350.6172)" font-family="'MyriadPro-Regular'" font-size="12">Alimentación</text>
<path fill="#F6FBE9" d="M641.414,527.024h-33.593v-11.199h33.593c3.091-0.002,5.595-2.507,5.599-5.596v-11.198
	c0.011-9.273,7.524-16.787,16.798-16.798h5.6c3.09-0.004,5.595-2.509,5.599-5.599v-5.599c-0.004-3.092-2.509-5.596-5.599-5.6
	h-36.395c-7.729,0-13.998-6.266-13.998-13.997s6.269-13.997,13.998-13.997h64.389v11.198h-64.389c-1.545,0-2.799,1.252-2.799,2.799
	c0,1.546,1.254,2.799,2.799,2.799h36.395c9.272,0.01,16.785,7.523,16.795,16.798v5.599c-0.01,9.272-7.522,16.785-16.795,16.797h-5.6
	c-3.091,0.003-5.595,2.507-5.6,5.6v11.198C658.201,519.499,650.687,527.014,641.414,527.024z"/>
<linearGradient id="SVGID_18_" gradientUnits="userSpaceOnUse" x1="585.4258" y1="499.0303" x2="630.2168" y2="499.0303">
	<stop  offset="0" style="stop-color:#B3E052"/>
	<stop  offset="1" style="stop-color:#F6E46F"/>
</linearGradient>
<path fill="url(#SVGID_18_)" d="M607.821,471.036c-12.364,0.015-22.383,10.033-22.396,22.396c0,10.87,15.188,28.345,18.229,31.733
	c2.064,2.302,5.605,2.492,7.907,0.428c0.148-0.135,0.292-0.277,0.427-0.428c3.04-3.389,18.229-20.863,18.229-31.733
	C630.203,481.069,620.185,471.051,607.821,471.036z"/>
<linearGradient id="SVGID_19_" gradientUnits="userSpaceOnUse" x1="585.4258" y1="499.0273" x2="613.4219" y2="499.0273">
	<stop  offset="0" style="stop-color:#B3E052"/>
	<stop  offset="1" style="stop-color:#F6E46F"/>
</linearGradient>
<path fill="url(#SVGID_19_)" d="M596.623,493.432c0.014-10.208,6.915-19.121,16.799-21.688c-11.984-3.089-24.2,4.124-27.288,16.104
	c-0.47,1.823-0.708,3.697-0.708,5.583c0,10.87,15.188,28.345,18.229,31.733c2.064,2.302,5.605,2.492,7.907,0.428
	c0.148-0.135,0.292-0.277,0.427-0.428c0.337-0.377,0.832-0.935,1.434-1.63C608.617,517.966,596.623,503.095,596.623,493.432z"/>
<circle fill="#E6F9FE" cx="607.821" cy="493.432" r="11.198"/>
<linearGradient id="SVGID_20_" gradientUnits="userSpaceOnUse" x1="675.0088" y1="420.6445" x2="719.7998" y2="420.6445">
	<stop  offset="0" style="stop-color:#B3E052"/>
	<stop  offset="1" style="stop-color:#F6E46F"/>
</linearGradient>
<path fill="url(#SVGID_20_)" d="M697.404,392.649c-12.364,0.015-22.383,10.032-22.396,22.396c0,10.87,15.187,28.345,18.229,31.733
	c2.064,2.302,5.604,2.494,7.905,0.43c0.15-0.137,0.295-0.278,0.429-0.43c3.041-3.389,18.229-20.863,18.229-31.733
	C719.785,402.682,709.768,392.664,697.404,392.649L697.404,392.649z"/>
<circle fill="#FFFFFF" cx="697.404" cy="415.046" r="11.198"/>
<text transform="matrix(1 0 0 1 608.2559 553.5225)" font-family="'MyriadPro-Regular'" font-size="12">Guia</text>
<path fill="#AADD3D" d="M898.579,445.239l-8.84-8.841l-4.958,4.955l-4.956-4.955l-8.842,8.841l4.956,4.956l-4.956,4.959l8.842,8.841
	l4.956-4.957l4.958,4.957l8.84-8.841l-4.955-4.959L898.579,445.239z"/>
<path fill="#E3F4BE" d="M772.243,476.745c16.217,1.8,45.021-1.557,56.27-29.675c12.505-31.261,31.261-31.261,56.269-25.008
	c11.937,2.984,28.806,1.397,37.513-2.711v-22.299c0-3.452-2.799-6.251-6.253-6.251H778.495c-3.453,0-6.252,2.799-6.252,6.251
	V476.745z"/>
<path fill="#D9F0A9" d="M816.79,404.087c1.019-2.549,2.08-11.14,3.183-13.285h-41.478c-3.453,0-6.252,2.799-6.252,6.251v36.911
	C786.325,432.787,808.075,425.87,816.79,404.087z"/>
<linearGradient id="SVGID_21_" gradientUnits="userSpaceOnUse" x1="569.3965" y1="176.1855" x2="607.1238" y2="213.9129" gradientTransform="matrix(1 0 0 -1 234 657)">
	<stop  offset="0" style="stop-color:#B3E052"/>
	<stop  offset="1" style="stop-color:#F6E46F"/>
</linearGradient>
<path fill="url(#SVGID_21_)" d="M822.26,434.565c-13.79,0-25.008,11.219-25.008,25.01c0,12.138,16.955,31.648,20.354,35.437
	c2.447,2.726,6.857,2.726,9.307,0c3.4-3.788,20.355-23.299,20.355-35.437C847.269,445.784,836.049,434.565,822.26,434.565z"/>
<path fill="#F6FBE9" d="M834.764,459.575c0,6.905-5.599,12.503-12.504,12.503c-6.907,0-12.503-5.598-12.503-12.503
	c0-6.906,5.596-12.505,12.503-12.505C829.165,447.07,834.764,452.669,834.764,459.575z"/>
<g>
	<path fill="#E3F4BE" d="M853.52,490.836c0,3.453-2.798,6.251-6.251,6.251s-6.251-2.798-6.251-6.251
		c0-3.454,2.798-6.253,6.251-6.253S853.52,487.382,853.52,490.836z"/>
	<path fill="#E3F4BE" d="M872.277,490.836c0,3.453-2.799,6.251-6.253,6.251c-3.452,0-6.251-2.798-6.251-6.251
		c0-3.454,2.799-6.253,6.251-6.253C869.479,484.583,872.277,487.382,872.277,490.836z"/>
	<path fill="#E3F4BE" d="M891.033,490.836c0,3.453-2.799,6.251-6.252,6.251s-6.253-2.798-6.253-6.251c0-3.454,2.8-6.253,6.253-6.253
		S891.033,487.382,891.033,490.836z"/>
	<path fill="#E3F4BE" d="M891.033,472.078c0,3.454-2.799,6.253-6.252,6.253s-6.253-2.799-6.253-6.253c0-3.453,2.8-6.252,6.253-6.252
		S891.033,468.625,891.033,472.078z"/>
</g>
<text transform="matrix(1 0 0 1 789.2207 552.4766)" font-family="'MyriadPro-Regular'" font-size="12">Peatonal</text>
<g>
	<linearGradient id="SVGID_22_" gradientUnits="userSpaceOnUse" x1="1005.8525" y1="454.1221" x2="1082.2627" y2="454.1221">
		<stop  offset="0" style="stop-color:#B3E052"/>
		<stop  offset="1" style="stop-color:#F6E46F"/>
	</linearGradient>
	<path fill="url(#SVGID_22_)" d="M1055.845,474.975l25.483-35.722c1.625-2.299,1.077-5.479-1.223-7.104
		c-0.854-0.604-1.876-0.931-2.922-0.935l-66.253,0.001c-2.814,0.01-5.09,2.301-5.078,5.115c0.003,1.048,0.33,2.068,0.933,2.922
		l25.521,35.687l0.575,0.576c0.952,0.965,2.251,1.509,3.606,1.514h15.283C1053.376,477.024,1054.886,476.263,1055.845,474.975z"/>
	<linearGradient id="SVGID_23_" gradientUnits="userSpaceOnUse" x1="975.2285" y1="464.3145" x2="1041.498" y2="464.3145">
		<stop  offset="0" style="stop-color:#B3E052"/>
		<stop  offset="1" style="stop-color:#F6E46F"/>
	</linearGradient>
	<path fill="url(#SVGID_23_)" d="M1008.372,431.18c-18.299-0.005-33.138,14.826-33.144,33.127
		c-0.004,18.298,14.827,33.139,33.127,33.143c18.299,0.004,33.139-14.825,33.143-33.127c0.001-0.005,0-0.011,0-0.016
		C1041.465,446.024,1026.654,431.212,1008.372,431.18z"/>
	
		<linearGradient id="SVGID_24_" gradientUnits="userSpaceOnUse" x1="-318.6152" y1="175.5073" x2="-317.9287" y2="174.8219" gradientTransform="matrix(33.3431 33.3431 -33.3431 33.3431 17461.127 5235.856)">
		<stop  offset="0" style="stop-color:#B3E052"/>
		<stop  offset="1" style="stop-color:#F6E46F"/>
	</linearGradient>
	<path fill="url(#SVGID_24_)" d="M992.26,480.454c-8.959-8.959-8.959-23.483,0-32.441c8.957-8.958,23.482-8.958,32.439,0l0,0
		c8.96,8.959,8.96,23.482,0.001,32.441C1015.742,489.413,1001.219,489.413,992.26,480.454z"/>
	<linearGradient id="SVGID_25_" gradientUnits="userSpaceOnUse" x1="1046.6523" y1="464.3418" x2="1112.9043" y2="464.3418">
		<stop  offset="0" style="stop-color:#B3E052"/>
		<stop  offset="1" style="stop-color:#F6E46F"/>
	</linearGradient>
	<path fill="url(#SVGID_25_)" d="M1112.904,464.342c-0.171-18.225-14.903-32.955-33.127-33.126
		c-18.279,0.033-33.093,14.846-33.125,33.126c0.17,18.223,14.902,32.955,33.125,33.126
		C1098.061,497.436,1112.871,482.624,1112.904,464.342z"/>
	
		<linearGradient id="SVGID_26_" gradientUnits="userSpaceOnUse" x1="-317.5405" y1="174.4419" x2="-316.8542" y2="173.7555" gradientTransform="matrix(33.3431 33.3431 -33.3431 33.3431 17461.127 5235.856)">
		<stop  offset="0" style="stop-color:#B3E052"/>
		<stop  offset="1" style="stop-color:#F6E46F"/>
	</linearGradient>
	<path fill="url(#SVGID_26_)" d="M1063.595,480.49c-8.903-8.941-8.936-23.388-0.072-32.37c9.23-8.839,23.881-8.524,32.722,0.708
		c4.007,4.186,6.301,9.72,6.423,15.513c-0.036,12.647-10.278,22.89-22.925,22.927c-5.983-0.014-11.721-2.382-15.969-6.597
		L1063.595,480.49z"/>
	<g>
		<path fill="#FFFFFF" d="M1021.096,466.9l-10.164,0.001l-0.001-15.283l-10.2-0.038v20.403c0.009,2.805,2.279,5.074,5.083,5.082
			l15.282-0.001V466.9z"/>
		<path fill="#FFFFFF" d="M1090.881,476.849l3.242-9.658l-6.702-2.236l-0.037-8.254c-0.007-2.804-2.277-5.075-5.082-5.082
			l-10.201-0.036c-2.804,0.008-5.073,2.279-5.081,5.083l0.143,20.618h10.165l-0.107-5.012L1090.881,476.849z"/>
	</g>
</g>
<text transform="matrix(1 0 0 1 973.6162 555.5557)" font-family="'MyriadPro-Regular'" font-size="12">Avistamiento</text>
<linearGradient id="SVGID_27_" gradientUnits="userSpaceOnUse" x1="-246.9287" y1="687.7285" x2="-246.9287" y2="704.583" gradientTransform="matrix(8 0 0 -8 2218.5 6232.5)">
	<stop  offset="0" style="stop-color:#B3E052"/>
	<stop  offset="1" style="stop-color:#F6E46F"/>
</linearGradient>
<path fill="url(#SVGID_27_)" d="M253.944,665.429h-21.746v-4.35h21.746V665.429z M310.484,600.188v78.288h-9.092
	c-2.152,16.728-13.83,31.053-30.053,36.362v11.48h39.145v4.35H175.656v-4.35h39.144v-11.48
	c-16.221-5.31-27.898-19.635-30.053-36.362h-9.091v-78.288c0-2.399,1.949-4.35,4.35-4.35h13.048c2.398,0,4.35,1.95,4.35,4.35v4.349
	h8.697c0-2.398,1.951-4.349,4.35-4.349h4.35c2.398,0,4.35,1.95,4.35,4.349h4.35c0-2.398,1.951-4.349,4.35-4.349h4.35
	c2.398,0,4.348,1.95,4.348,4.349h13.049c0-2.398,1.951-4.349,4.35-4.349h4.349c2.398,0,4.35,1.95,4.35,4.349h4.35
	c0-2.398,1.949-4.349,4.348-4.349h4.35c2.398,0,4.35,1.95,4.35,4.349h8.699v-4.349c0-2.399,1.951-4.35,4.35-4.35h13.047
	C308.535,595.839,310.484,597.789,310.484,600.188z M306.135,669.778v-4.35l-2.898,2.175L306.135,669.778z M280.039,619.314
	l8.699,20.297v-22.025h-8.699V619.314z M293.088,643.682l2.898-2.174l-2.898-2.176V643.682z M299.611,638.789l5.074-3.806
	l-5.074-3.806l-5.074,3.806L299.611,638.789z M295.986,628.459l-2.898-2.175v4.35L295.986,628.459z M299.611,625.741l5.074-3.807
	l-5.074-3.806l-5.074,3.806L299.611,625.741z M295.986,615.411l-2.898-2.175v4.35L295.986,615.411z M299.611,612.692l5.074-3.806
	h-10.15L299.611,612.692z M294.363,648.159c2.311,0.344,4.311,1.583,5.654,3.371l4.668-3.499l-5.074-3.806L294.363,648.159z
	 M301.787,658.904v4.35l2.898-2.175L301.787,658.904z M306.135,656.729v-4.349l-2.9,2.174L306.135,656.729z M306.135,643.682v-4.35
	l-2.898,2.176L306.135,643.682z M306.135,630.634v-4.35l-2.898,2.175L306.135,630.634z M306.135,617.586v-4.35l-2.898,2.175
	L306.135,617.586z M293.088,604.537h13.047v-4.349h-13.047V604.537z M280.039,608.887v4.35h8.699v-4.35H280.039z M270.6,621.935
	l-3.418,7.976l8.332,19.439l-3.996,1.713l-6.701-15.634l-5.463,12.748c1.883,0.477,3.289,2.173,3.289,4.204v17.765
	c0,1.346-0.15,2.673-0.371,3.981h21.346c0.398-1.681,0.658-3.414,0.74-5.194l-0.887-0.444c-2.117-1.06-3.432-3.188-3.432-5.552
	c0-2.774,1.832-5.133,4.35-5.924v-0.283c0-3.005,1.533-5.658,3.859-7.222l-11.816-27.573H270.6z M282.182,678.477h-21.055
	c-1.721,4.732-4.863,8.875-9.058,11.798l1.398,5.6h2.65C267.85,695.874,277.908,688.676,282.182,678.477z M230.022,695.874h2.65
	l1.4-5.6c-4.193-2.925-7.336-7.068-9.057-11.798h-21.055C208.231,688.676,218.29,695.874,230.022,695.874z M227.848,661.079v9.066
	c0,6.865,3.555,13.337,9.318,17.03h11.811c5.76-3.693,9.316-10.165,9.316-17.03v-17.765h-21.748
	C231.749,652.381,227.848,656.282,227.848,661.079z M244.124,648.031l-1.053-2.453l-1.053,2.453H244.124z M237.157,695.874h11.826
	l-1.088-4.35h-9.65L237.157,695.874z M264.816,624.388l2.176-5.073v-1.729h-4.35v1.729L264.816,624.388z M271.34,617.586h4.35
	v-13.049h-4.35V617.586z M262.643,608.887v4.35h4.35v-4.35H262.643z M253.202,621.935l-7.766,18.122l3.416,7.975h5.834l7.765-18.121
	l-3.416-7.976H253.202z M236.545,619.314l6.525,15.223l6.523-15.223v-1.729h-13.049V619.314z M253.944,617.586h4.349v-13.049h-4.349
	V617.586z M236.545,608.887v4.35h13.049v-4.35H236.545z M227.106,621.935l-3.416,7.976l8.148,19.015
	c1.463-0.569,3.047-0.894,4.707-0.894h0.742l3.416-7.975l-7.766-18.122H227.106z M221.323,624.388l2.176-5.073v-1.729h-4.35v1.729
	L221.323,624.388z M227.848,617.586h4.35v-13.049h-4.35V617.586z M219.149,608.887v4.35h4.35v-4.35H219.149z M209.708,621.935
	l-11.816,27.573c2.326,1.563,3.859,4.217,3.859,7.222v0.283c2.52,0.791,4.35,3.146,4.35,5.924c0,2.363-1.313,4.492-3.43,5.552
	l-0.889,0.446c0.082,1.78,0.342,3.514,0.742,5.195h21.344c-0.217-1.31-0.369-2.636-0.369-3.982v-9.068
	c0-3.96,1.779-7.507,4.572-9.903l-6.748-15.747l-6.699,15.634l-3.998-1.713l8.332-19.439l-3.416-7.976H209.708z M206.1,617.586
	h-8.697v22.025l8.697-20.297V617.586z M186.528,618.129l-5.073,3.806l5.073,3.807l5.074-3.807L186.528,618.129z M193.053,617.586
	v-4.35l-2.9,2.175L193.053,617.586z M190.153,628.459l2.9,2.175v-4.35L190.153,628.459z M186.528,631.178l-5.073,3.806l5.073,3.806
	l5.074-3.806L186.528,631.178z M190.153,641.508l2.9,2.174v-4.35L190.153,641.508z M191.602,608.887h-10.147l5.073,3.806
	L191.602,608.887z M180.005,613.236v4.35l2.897-2.175L180.005,613.236z M180.005,626.284v4.35l2.897-2.175L180.005,626.284z
	 M180.005,639.332v4.35l2.897-2.174L180.005,639.332z M184.354,663.254v-4.35l-2.899,2.175L184.354,663.254z M180.005,665.429v4.35
	l2.897-2.175L180.005,665.429z M182.905,654.555l-2.899-2.174v4.349L182.905,654.555z M191.776,648.159l-5.248-3.934l-5.073,3.806
	l4.667,3.499C187.465,649.745,189.467,648.505,191.776,648.159z M210.45,617.586h4.35v-13.049h-4.35V617.586z M197.403,608.887v4.35
	h8.697v-4.35H197.403z M180.005,600.188v4.349h13.048v-4.349H180.005z M184.405,674.127c-0.012-0.406-0.051-0.809-0.051-1.218
	v-0.957l-2.899,2.175H184.405z M201.331,701.92l8.639-8.64c-7.633-5.977-12.566-15.252-12.566-25.677v-1.344l3.322-1.662
	c0.633-0.315,1.025-0.952,1.025-1.661c0-1.024-0.832-1.857-1.855-1.857h-2.492v-4.35c0-2.398-1.951-4.349-4.35-4.349
	s-4.35,1.95-4.35,4.349v16.18C188.704,684.124,193.495,694.55,201.331,701.92z M271.34,704.573v5.688
	c3.68-1.354,7.07-3.242,10.121-5.541l-8.957-8.957c-4.822,2.817-10.41,4.46-16.386,4.46h-26.096c-5.977,0-11.564-1.643-16.387-4.46
	l-8.957,8.957c3.051,2.299,6.441,4.187,10.121,5.541v-5.688h4.35v21.746h47.843v-21.746H271.34z M297.438,656.729
	c0-2.398-1.951-4.349-4.35-4.349s-4.35,1.95-4.35,4.349v4.35h-2.492c-1.025,0-1.857,0.833-1.857,1.857
	c0,0.709,0.395,1.346,1.029,1.663l3.32,1.66v1.344c0,10.425-4.936,19.7-12.568,25.674l8.641,8.641
	c7.836-7.368,12.627-17.794,12.627-29.009V656.729z M301.736,674.127h2.951l-2.9-2.175v0.957
	C301.787,673.318,301.746,673.721,301.736,674.127z"/>
<text transform="matrix(1 0 0 1 205.4429 759.8242)" font-family="'MyriadPro-Regular'" font-size="12">Hospedaje</text>
<linearGradient id="SVGID_28_" gradientUnits="userSpaceOnUse" x1="-220.5757" y1="687.458" x2="-220.5757" y2="704.4727" gradientTransform="matrix(8 0 0 -8 2218.5 6232.5)">
	<stop  offset="0" style="stop-color:#B3E052"/>
	<stop  offset="1" style="stop-color:#F6E46F"/>
</linearGradient>
<path fill="url(#SVGID_28_)" d="M407.789,682.341c0,3.631,2.955,6.585,6.587,6.585c3.63,0,6.585-2.954,6.585-6.585
	c0-3.632-2.955-6.587-6.585-6.587C410.744,675.754,407.789,678.709,407.789,682.341z M416.57,682.341
	c0,1.208-0.982,2.194-2.194,2.194c-1.213,0-2.195-0.986-2.195-2.194c0-1.209,0.982-2.196,2.195-2.196
	C415.588,680.145,416.57,681.132,416.57,682.341z M499.995,682.341c0-3.632-2.955-6.587-6.587-6.587
	c-3.63,0-6.586,2.955-6.586,6.587c0,3.631,2.956,6.585,6.586,6.585C497.04,688.926,499.995,685.972,499.995,682.341z
	 M491.214,682.341c0-1.209,0.982-2.196,2.194-2.196c1.213,0,2.195,0.987,2.195,2.196c0,1.208-0.982,2.194-2.195,2.194
	C492.196,684.535,491.214,683.549,491.214,682.341z M521.948,660.388v-8.782c0-3.633-2.955-6.587-6.586-6.587h-10.977v-24.149
	c0-13.314-10.835-24.148-24.148-24.148h-52.689c-13.314,0-24.149,10.834-24.149,24.148v24.149h-10.976
	c-3.632,0-6.587,2.954-6.587,6.587v8.782c0,3.629,2.955,6.586,6.587,6.586h3.339c-3.455,4.176-5.535,9.533-5.535,15.367
	c0,3.739,0.264,7.459,0.762,11.143c-2.943,0.659-5.152,3.283-5.152,6.419v26.344c0,3.632,2.955,6.587,6.587,6.587h13.171
	c3.632,0,6.587-2.955,6.587-6.587v-6.584h83.423v6.584c0,3.632,2.955,6.587,6.586,6.587h13.173c3.631,0,6.586-2.955,6.586-6.587
	v-26.344c0-3.136-2.209-5.76-5.151-6.419c0.498-3.684,0.76-7.403,0.76-11.143c0-5.834-2.078-11.191-5.534-15.367h3.34
	C518.993,666.974,521.948,664.017,521.948,660.388z M515.362,649.409c1.211,0,2.194,0.984,2.194,2.196v8.782
	c0,1.207-0.983,2.192-2.194,2.192h-8.111c-0.914-0.639-1.868-1.214-2.865-1.725v-11.446H515.362z M427.548,601.112h52.689
	c10.652,0,19.338,8.48,19.721,19.039c-4.375-6.195-11.578-10.26-19.721-10.26h-52.689c-8.144,0-15.347,4.064-19.721,10.26
	C408.209,609.593,416.895,601.112,427.548,601.112z M427.548,614.283h52.689c10.896,0,19.758,8.865,19.758,19.759v25.083
	c-1.417-0.4-2.884-0.686-4.392-0.825v-24.258c0-8.475-6.896-15.368-15.366-15.368h-52.689c-8.471,0-15.367,6.894-15.367,15.368
	v24.261c-1.51,0.137-2.975,0.422-4.392,0.825v-25.086C407.789,623.148,416.651,614.283,427.548,614.283z M508.777,710.88v2.195
	c0,1.21-0.985,2.195-2.195,2.195H401.203c-1.211,0-2.195-0.985-2.195-2.195v-2.195H508.777z M425.351,682.341
	c0,6.053-4.922,10.978-10.975,10.978s-10.978-4.925-10.978-10.978c0-6.054,4.925-10.977,10.978-10.977
	S425.351,676.287,425.351,682.341z M473.65,706.488v-13.17h4.391v13.17H473.65z M469.26,706.488h-4.39v-13.17h4.39V706.488z
	 M460.479,706.488h-4.391v-13.17h4.391V706.488z M451.695,706.488h-4.39v-13.17h4.39V706.488z M442.915,706.488h-4.391v-13.17h4.391
	V706.488z M434.134,706.488h-4.391v-13.17h4.391V706.488z M425.109,693.318h0.241v13.17h-4.39v-10.286
	C422.501,695.468,423.903,694.496,425.109,693.318z M482.434,706.488v-13.17h0.241c1.206,1.178,2.608,2.149,4.147,2.884v10.286
	H482.434z M482.434,682.341c0-6.054,4.923-10.977,10.975-10.977c6.053,0,10.978,4.923,10.978,10.977
	c0,6.053-4.925,10.978-10.978,10.978C487.356,693.318,482.434,688.394,482.434,682.341z M478.041,682.341
	c0,2.358,0.551,4.585,1.505,6.585h-51.307c0.953-2,1.504-4.227,1.504-6.585c0-6.116-3.599-11.394-8.782-13.865v-5.896h65.861v5.896
	C481.64,670.947,478.041,676.225,478.041,682.341z M491.214,655.994c0-5.921-3.374-11.065-8.296-13.63
	c2.368-2.013,3.904-4.979,3.904-8.325v-8.722c2.65,2.008,4.392,5.155,4.392,8.725V655.994z M482.434,634.039
	c0,3.631-2.956,6.587-6.588,6.587v0.002h-8.782v-0.002c-3.63,0-6.584-2.956-6.584-6.587v-10.974h19.758
	c0.751,0,1.484,0.076,2.196,0.222V634.039z M459.993,642.364c-2.529,1.318-4.639,3.318-6.1,5.757
	c-1.464-2.438-3.572-4.438-6.103-5.757c2.369-2.013,3.904-4.979,3.904-8.325v-10.974h4.394v10.974
	C456.089,637.386,457.624,640.352,459.993,642.364z M451.695,658.19h-4.61c-1.021-5.003-5.454-8.781-10.756-8.781
	s-9.735,3.778-10.755,8.781h-4.613v-2.196c0-6.052,4.924-10.976,10.977-10.976h8.783c6.052,0,10.975,4.924,10.975,10.976V658.19z
	 M442.512,658.19h-12.362c0.909-2.55,3.324-4.391,6.183-4.391C439.189,653.8,441.603,655.641,442.512,658.19z M447.306,634.039
	c0,3.631-2.955,6.587-6.585,6.587v0.002h-8.783v-0.002c-3.631,0-6.587-2.956-6.587-6.587v-10.752
	c0.712-0.146,1.446-0.222,2.197-0.222h19.758V634.039z M424.867,642.364c-4.922,2.564-8.297,7.709-8.297,13.63v-21.952
	c0-3.572,1.741-6.721,4.391-8.725v8.722C420.961,637.386,422.498,640.352,424.867,642.364z M456.089,658.19v-2.196
	c0-6.052,4.923-10.976,10.975-10.976h8.782c6.054,0,10.977,4.924,10.977,10.976v2.196H456.089z M390.227,660.388v-8.782
	c0-1.212,0.983-2.196,2.196-2.196h10.976v11.446c-0.997,0.511-1.952,1.086-2.865,1.725h-8.11
	C391.21,662.58,390.227,661.595,390.227,660.388z M414.376,662.58h2.194v4.567c-0.72-0.104-1.447-0.174-2.194-0.174
	c-8.474,0-15.368,6.893-15.368,15.367c0,8.473,6.895,15.367,15.368,15.367c0.747,0,1.475-0.074,2.194-0.177v8.957h-8.781v-4.39
	h-4.391v4.39h-4.995c-2.513-7.814-3.786-15.934-3.786-24.147C394.617,671.446,403.48,662.58,414.376,662.58z M407.789,726.246
	c0,1.21-0.984,2.195-2.195,2.195h-13.171c-1.213,0-2.196-0.985-2.196-2.195v-26.344c0-0.953,0.619-1.745,1.469-2.047
	c0.693,3.664,1.621,7.288,2.809,10.846l0.113,0.341v4.033c0,3.631,2.956,6.587,6.586,6.587h6.586V726.246z M516.089,697.855
	c0.851,0.302,1.468,1.094,1.468,2.047v26.344c0,1.21-0.983,2.195-2.194,2.195h-13.173c-1.21,0-2.194-0.985-2.194-2.195v-6.584h6.587
	c3.63,0,6.585-2.956,6.585-6.587v-4.038l0.111-0.336C514.468,705.144,515.393,701.52,516.089,697.855L516.089,697.855z
	 M509.381,706.488h-4.995v-4.39h-4.391v4.39h-8.781v-8.957c0.719,0.103,1.447,0.177,2.194,0.177c8.474,0,15.369-6.895,15.369-15.367
	c0-8.475-6.896-15.367-15.369-15.367c-0.747,0-1.476,0.07-2.194,0.174v-4.567h2.194c10.896,0,19.759,8.866,19.759,19.761
	C513.167,690.555,511.896,698.673,509.381,706.488z M436.329,636.233h-6.586v-4.389h6.586c1.872,0,3.555-1.042,4.392-2.715
	l0.23-0.459l3.927,1.96l-0.231,0.462C443.062,634.267,439.874,636.233,436.329,636.233z M476.076,628.671l3.928,1.96l-0.23,0.462
	c-1.585,3.174-4.773,5.141-8.317,5.141h-6.586v-4.389h6.586c1.872,0,3.554-1.042,4.39-2.715L476.076,628.671z"/>
<text transform="matrix(1 0 0 1 396.4336 756.6729)" font-family="'MyriadPro-Regular'" font-size="12">Transporte</text>
<linearGradient id="SVGID_29_" gradientUnits="userSpaceOnUse" x1="393.6689" y1="-58.3398" x2="445.8477" y2="-6.161" gradientTransform="matrix(1 0 0 -1 234.0005 657)">
	<stop  offset="0" style="stop-color:#B3E152"/>
	<stop  offset="1" style="stop-color:#F6E46F"/>
</linearGradient>
<path fill="url(#SVGID_29_)" d="M607.377,683.454h92.763v11.595h-92.763V683.454z"/>
<linearGradient id="SVGID_30_" gradientUnits="userSpaceOnUse" x1="393.668" y1="-75.7334" x2="445.8475" y2="-23.5539" gradientTransform="matrix(1 0 0 -1 234.0005 657)">
	<stop  offset="0" style="stop-color:#B3E152"/>
	<stop  offset="1" style="stop-color:#F6E46F"/>
</linearGradient>
<path fill="url(#SVGID_30_)" d="M607.377,700.847h92.763v11.596h-92.763V700.847z"/>
<path fill="#ECF7D4" d="M700.14,735.632h-92.763c-3.201,0-5.795-2.596-5.795-5.797v-92.761c0-3.202,2.594-5.798,5.795-5.798h92.763
	c3.202,0,5.798,2.596,5.798,5.798v92.761C705.938,733.036,703.342,735.632,700.14,735.632z M613.176,724.037h81.165v-81.165h-81.165
	V724.037z"/>
<path fill="#B3E152" d="M584.188,724.037h139.141v11.595H584.188V724.037z"/>
<path fill="#CFEC93" d="M595.784,642.872h115.948l-57.974-40.584L595.784,642.872z"/>
<path fill="#BCE468" d="M653.759,602.288l-57.975,40.584h17.392l53.069-31.844L653.759,602.288z"/>
<path fill="#A0D927" d="M714.42,647.762l-60.661-38.602l-60.661,38.602l-6.225-9.783l63.772-40.581c1.9-1.209,4.328-1.209,6.227,0
	l63.772,40.581L714.42,647.762z"/>
<text transform="matrix(1 0 0 1 596.123 757.5889)" font-family="'MyriadPro-Regular'" font-size="12">Hospedaje</text>
<path fill="#ECF7D4" d="M785.131,726.578V588.709h-7.532c-4.156,0-7.526,2.806-7.526,6.266v137.872c0,3.461,3.37,6.266,7.526,6.266
	h135.514c4.155,0,7.528-2.805,7.528-6.266H792.658C788.5,732.847,785.131,730.039,785.131,726.578z"/>
<path fill="#D9F0A9" d="M817.01,641.171h11.909v35.732H817.01V641.171z"/>
<linearGradient id="SVGID_31_" gradientUnits="userSpaceOnUse" x1="575.3574" y1="18.1274" x2="602.572" y2="45.3421" gradientTransform="matrix(1 0 0 -1 234 657)">
	<stop  offset="0" style="stop-color:#B3E052"/>
	<stop  offset="1" style="stop-color:#F6E46F"/>
</linearGradient>
<path fill="url(#SVGID_31_)" d="M822.965,605.439c-9.852,0-17.866,8.015-17.866,17.865c0,9.483,7.125,23.821,17.866,23.821
	s17.866-14.338,17.866-23.821C840.831,613.454,832.816,605.439,822.965,605.439z"/>
<path fill="#D9F0A9" d="M864.651,653.081h11.911v23.822h-11.911V653.081z"/>
<linearGradient id="SVGID_32_" gradientUnits="userSpaceOnUse" x1="623" y1="6.2173" x2="650.2139" y2="33.4313" gradientTransform="matrix(1 0 0 -1 234 657)">
	<stop  offset="0" style="stop-color:#B3E052"/>
	<stop  offset="1" style="stop-color:#F6E46F"/>
</linearGradient>
<path fill="url(#SVGID_32_)" d="M870.607,617.349c-9.852,0-17.866,8.017-17.866,17.866c0,9.483,7.126,23.822,17.866,23.822
	s17.866-14.339,17.866-23.822C888.474,625.365,880.458,617.349,870.607,617.349z"/>
<path fill="#B3E052" d="M920.64,676.903H785.096v53.599c0,3.289,3.033,5.954,6.775,5.954h121.992c3.74,0,6.776-2.665,6.776-5.954
	V676.903z"/>
<path fill="#AADD3D" d="M799.145,724.545v-47.642h-11.912v53.599c0,3.289,2.666,5.954,5.954,5.954h107.198
	c3.287,0,5.955-2.665,5.955-5.954H805.099C801.81,730.502,799.145,727.834,799.145,724.545z"/>
<g>
	<path fill="#E3F4BE" d="M822.965,694.77h47.643v11.911h-47.643V694.77z"/>
	<path fill="#E3F4BE" d="M822.965,712.636h29.776v11.909h-29.776V712.636z"/>
</g>
<g>
	<path fill="#FFDC68" d="M1050.08,610.177l-6.352,12.775l-6.353-12.775l-10.323,5.196l11.55,23.099
		c1.445,2.889,4.909,4.043,7.725,2.6c1.083-0.578,2.021-1.444,2.599-2.6l11.549-23.099L1050.08,610.177z"/>
	<path fill="#FFDC68" d="M1095.827,721.36l5.778-28.883l11.326,2.265l-5.779,28.883L1095.827,721.36z"/>
	<path fill="#FFDC68" d="M974.541,694.756l11.326-2.265l5.776,28.88l-11.326,2.265L974.541,694.756z"/>
	<path fill="#FFDC68" d="M1106.313,719.319l-39.775-44.539l-17.973-42.083c-1.805-2.671-5.342-3.393-8.013-1.588
		c-0.649,0.434-1.156,0.938-1.589,1.588l-57.747,86.622c-2.526,3.753,0.218,8.95,4.765,8.95h75.289l17.106-5.774l23.1,5.774
		c3.176,0,5.774-2.599,5.774-5.774C1107.25,721.34,1106.889,720.258,1106.313,719.319z"/>
</g>
<linearGradient id="SVGID_33_" gradientUnits="userSpaceOnUse" x1="750.2451" y1="1060.3047" x2="829.3783" y2="981.1722" gradientTransform="matrix(1 0 0 1 233.9872 -331.4303)">
	<stop  offset="0" style="stop-color:#FF99B5"/>
	<stop  offset="1" style="stop-color:#FFDC68"/>
</linearGradient>
<path fill="url(#SVGID_33_)" d="M1043.729,630.099c-1.949,0-3.755,0.938-4.837,2.599l-57.748,86.622
	c-2.454,3.753,0.29,8.95,4.837,8.95h40.423l17.325-40.423V630.099z"/>
<path fill="#FFF6D9" d="M1043.729,630.099c1.947,0,3.752,0.938,4.836,2.599l57.748,86.622c2.525,3.753-0.29,8.95-4.837,8.95h-40.424
	l-17.323-40.423V630.099L1043.729,630.099z"/>
<path fill="#FFEDB4" d="M1061.052,728.27l15.448-25.77c0.793-1.371,0.36-3.177-1.012-3.97c-0.217-0.146-0.36-0.218-0.577-0.29
	l-31.183-10.394L1061.052,728.27z"/>
<path fill="#FFF2C6" d="M1026.403,728.27l-15.446-25.77c-0.795-1.371-0.362-3.177,1.01-3.97c0.216-0.146,0.36-0.218,0.577-0.29
	l31.185-10.394L1026.403,728.27z"/>
<linearGradient id="SVGID_34_" gradientUnits="userSpaceOnUse" x1="188.4219" y1="835.1543" x2="242.3105" y2="835.1543">
	<stop  offset="0" style="stop-color:#B3E052"/>
	<stop  offset="1" style="stop-color:#F6E46F"/>
</linearGradient>
<path fill="none" stroke="url(#SVGID_34_)" stroke-width="2" stroke-miterlimit="10" d="M215.366,861.099
	c14.304,0,25.944-11.642,25.944-25.946c0-14.304-11.641-25.943-25.944-25.943c-14.305,0-25.944,11.64-25.944,25.943
	C189.422,849.457,201.062,861.099,215.366,861.099z"/>
<linearGradient id="SVGID_35_" gradientUnits="userSpaceOnUse" x1="193.1621" y1="835.1523" x2="237.5703" y2="835.1523">
	<stop  offset="0" style="stop-color:#B3E052"/>
	<stop  offset="1" style="stop-color:#F6E46F"/>
</linearGradient>
<path fill="none" stroke="url(#SVGID_35_)" stroke-width="2" stroke-miterlimit="10" d="M213.008,814.065v4.578h4.717v-4.578
	c9.824,1.093,17.638,8.906,18.729,18.729h-4.578v4.718h4.578c-1.091,9.822-8.904,17.637-18.729,18.728v-4.577h-4.717v4.577
	c-9.823-1.091-17.637-8.905-18.729-18.728h4.577v-4.718h-4.577C195.371,822.972,203.185,815.158,213.008,814.065z"/>
<linearGradient id="SVGID_36_" gradientUnits="userSpaceOnUse" x1="212.0078" y1="830.4375" x2="223.4414" y2="830.4375">
	<stop  offset="0" style="stop-color:#B3E052"/>
	<stop  offset="1" style="stop-color:#F6E46F"/>
</linearGradient>
<polygon fill="none" stroke="url(#SVGID_36_)" stroke-width="2" stroke-miterlimit="10" points="222.441,837.513 213.008,837.513 
	213.008,823.361 217.725,823.361 217.725,832.795 222.441,832.795 "/>
<linearGradient id="SVGID_37_" gradientUnits="userSpaceOnUse" x1="215.3662" y1="870.4414" x2="322.5" y2="870.4414">
	<stop  offset="0" style="stop-color:#B3E052"/>
	<stop  offset="1" style="stop-color:#F6E46F"/>
</linearGradient>
<path fill="none" stroke="url(#SVGID_37_)" stroke-width="2" stroke-miterlimit="10" d="M316.961,922.594l-42.631-0.175v-18.868
	h42.354v-4.718H274.33v-18.868h42.354l0.276-4.898l-42.631,0.182V856.38h42.077v-4.717h-69.774c1.553-2.929,2.717-6.093,3.398-9.434
	h66.752v98.878h4.717V825.719c0-6.502-5.289-11.791-11.792-11.791h-66.105c-6.462-8.574-16.695-14.152-28.236-14.152"/>
<linearGradient id="SVGID_38_" gradientUnits="userSpaceOnUse" x1="178.9883" y1="870.5313" x2="316.9629" y2="870.5313">
	<stop  offset="0" style="stop-color:#B3E052"/>
	<stop  offset="1" style="stop-color:#F6E46F"/>
</linearGradient>
<path fill="none" stroke="url(#SVGID_38_)" stroke-width="2" stroke-miterlimit="10" d="M215.366,799.775
	c-19.507,0-35.378,15.87-35.378,35.377c0,6.399,1.733,12.391,4.717,17.577v76.766c0,6.503,5.291,11.792,11.793,11.792l120.463-0.18"
	/>
<linearGradient id="SVGID_39_" gradientUnits="userSpaceOnUse" x1="249.7441" y1="912.9844" x2="270.6123" y2="912.9844">
	<stop  offset="0" style="stop-color:#B3E052"/>
	<stop  offset="1" style="stop-color:#F6E46F"/>
</linearGradient>
<rect x="250.744" y="903.551" fill="none" stroke="url(#SVGID_39_)" stroke-width="2" stroke-miterlimit="10" width="18.868" height="18.868"/>
<linearGradient id="SVGID_40_" gradientUnits="userSpaceOnUse" x1="202.5742" y1="871.6504" x2="223.4414" y2="871.6504">
	<stop  offset="0" style="stop-color:#B3E052"/>
	<stop  offset="1" style="stop-color:#F6E46F"/>
</linearGradient>
<path fill="none" stroke="url(#SVGID_40_)" stroke-width="2" stroke-miterlimit="10" d="M215.366,870.532
	c2.423,0,4.788-0.248,7.075-0.713v5.429h-18.867v-6.78C207.27,869.779,211.227,870.532,215.366,870.532z"/>
<linearGradient id="SVGID_41_" gradientUnits="userSpaceOnUse" x1="202.5742" y1="889.3984" x2="223.4414" y2="889.3984">
	<stop  offset="0" style="stop-color:#B3E052"/>
	<stop  offset="1" style="stop-color:#F6E46F"/>
</linearGradient>
<rect x="203.574" y="879.965" fill="none" stroke="url(#SVGID_41_)" stroke-width="2" stroke-miterlimit="10" width="18.867" height="18.868"/>
<linearGradient id="SVGID_42_" gradientUnits="userSpaceOnUse" x1="226.1592" y1="889.3984" x2="247.0273" y2="889.3984">
	<stop  offset="0" style="stop-color:#B3E052"/>
	<stop  offset="1" style="stop-color:#F6E46F"/>
</linearGradient>
<rect x="227.159" y="879.965" fill="none" stroke="url(#SVGID_42_)" stroke-width="2" stroke-miterlimit="10" width="18.868" height="18.868"/>
<linearGradient id="SVGID_43_" gradientUnits="userSpaceOnUse" x1="202.5742" y1="912.9844" x2="223.4414" y2="912.9844">
	<stop  offset="0" style="stop-color:#B3E052"/>
	<stop  offset="1" style="stop-color:#F6E46F"/>
</linearGradient>
<rect x="203.574" y="903.551" fill="none" stroke="url(#SVGID_43_)" stroke-width="2" stroke-miterlimit="10" width="18.867" height="18.868"/>
<linearGradient id="SVGID_44_" gradientUnits="userSpaceOnUse" x1="226.1592" y1="912.9844" x2="247.0273" y2="912.9844">
	<stop  offset="0" style="stop-color:#B3E052"/>
	<stop  offset="1" style="stop-color:#F6E46F"/>
</linearGradient>
<rect x="227.159" y="903.551" fill="none" stroke="url(#SVGID_44_)" stroke-width="2" stroke-miterlimit="10" width="18.868" height="18.868"/>
<linearGradient id="SVGID_45_" gradientUnits="userSpaceOnUse" x1="249.7441" y1="889.3984" x2="270.6123" y2="889.3984">
	<stop  offset="0" style="stop-color:#B3E052"/>
	<stop  offset="1" style="stop-color:#F6E46F"/>
</linearGradient>
<rect x="250.744" y="879.965" fill="none" stroke="url(#SVGID_45_)" stroke-width="2" stroke-miterlimit="10" width="18.868" height="18.868"/>
<linearGradient id="SVGID_46_" gradientUnits="userSpaceOnUse" x1="249.7441" y1="865.8145" x2="270.6123" y2="865.8145">
	<stop  offset="0" style="stop-color:#B3E052"/>
	<stop  offset="1" style="stop-color:#F6E46F"/>
</linearGradient>
<rect x="250.744" y="856.38" fill="none" stroke="url(#SVGID_46_)" stroke-width="2" stroke-miterlimit="10" width="18.868" height="18.868"/>
<linearGradient id="SVGID_47_" gradientUnits="userSpaceOnUse" x1="226.1592" y1="865.8145" x2="247.0273" y2="865.8145">
	<stop  offset="0" style="stop-color:#B3E052"/>
	<stop  offset="1" style="stop-color:#F6E46F"/>
</linearGradient>
<path fill="none" stroke="url(#SVGID_47_)" stroke-width="2" stroke-miterlimit="10" d="M246.027,856.38v18.868h-18.868v-6.78
	c6.606-2.347,12.3-6.591,16.443-12.088H246.027z"/>
<linearGradient id="SVGID_48_" gradientUnits="userSpaceOnUse" x1="244.9707" y1="828.0781" x2="317.7832" y2="828.0781">
	<stop  offset="0" style="stop-color:#B3E052"/>
	<stop  offset="1" style="stop-color:#F6E46F"/>
</linearGradient>
<path fill="none" stroke="url(#SVGID_48_)" stroke-width="2" stroke-miterlimit="10" d="M309.708,818.644
	c3.9,0,7.075,3.175,7.075,7.075v11.794h-66.159c0.052-0.783,0.12-1.563,0.12-2.36c0-5.961-1.495-11.574-4.111-16.509H309.708z"/>
<linearGradient id="SVGID_49_" gradientUnits="userSpaceOnUse" x1="183.7051" y1="835.1543" x2="247.0273" y2="835.1543">
	<stop  offset="0" style="stop-color:#B3E052"/>
	<stop  offset="1" style="stop-color:#F6E46F"/>
</linearGradient>
<path fill="none" stroke="url(#SVGID_49_)" stroke-width="2" stroke-miterlimit="10" d="M215.366,804.493
	c16.906,0,30.661,13.754,30.661,30.659c0,16.907-13.755,30.663-30.661,30.663s-30.661-13.756-30.661-30.663
	C184.705,818.247,198.46,804.493,215.366,804.493"/>
<linearGradient id="SVGID_50_" gradientUnits="userSpaceOnUse" x1="188.4219" y1="897.0723" x2="317.7129" y2="897.0723">
	<stop  offset="0" style="stop-color:#B3E052"/>
	<stop  offset="1" style="stop-color:#F6E46F"/>
</linearGradient>
<path fill="none" stroke="url(#SVGID_50_)" stroke-width="2" stroke-miterlimit="10" d="M189.422,929.495v-70.369
	c2.707,2.927,5.883,5.41,9.435,7.295v60.715h42.857c-0.259,0.739,72.483-0.397,74.971-0.397l-0.277,9.833H196.498
	C192.598,936.571,189.422,933.396,189.422,929.495z"/>
<linearGradient id="SVGID_51_" gradientUnits="userSpaceOnUse" x1="389.8477" y1="869.7871" x2="522.5" y2="869.7871">
	<stop  offset="0" style="stop-color:#B3E052"/>
	<stop  offset="1" style="stop-color:#F6E46F"/>
</linearGradient>
<path fill="none" stroke="url(#SVGID_51_)" stroke-width="2" stroke-miterlimit="10" d="M411.92,825.534h-4.214v-4.215h4.214
	V825.534z M420.35,821.319h-4.214v4.215h4.214V821.319z M491.998,829.748h-8.43v4.215h8.43V829.748z M491.056,819.434l-8.429,4.214
	l1.886,3.771l8.43-4.215L491.056,819.434z M491.488,844.437l1.02-4.088l-8.43-2.107l-1.02,4.088L491.488,844.437z M420.35,876.108
	h-4.214v4.215h4.214V876.108z M420.35,884.538h-4.214v4.215h4.214V884.538z M420.35,867.681h-4.214v4.213h4.214V867.681z
	 M420.35,892.968h-4.214v4.214h4.214V892.968z M516.548,930.898h4.952v4.215h-86.399h-4.214h-33.718v-18.966
	c-3.484,0-6.321-2.836-6.321-6.321v-40.814c0-4.179,2.076-8.059,5.555-10.378c1.361-0.909,2.866-1.532,4.472-1.853l6.832-1.366
	v-4.807c-4.122-0.841-7.375-4.094-8.216-8.216h-2.321c-3.484,0-6.321-2.837-6.321-6.322v-8.429c0-3.486,2.837-6.322,6.321-6.322
	h2.321c0.979-4.803,5.235-8.429,10.323-8.429h20.39c8.114,0,16.13-1.241,23.864-3.659v-0.556c0-2.324,1.889-4.215,4.214-4.215h8.429
	c2.324,0,4.215,1.891,4.215,4.215v11.342l8.43,4.215v15.247l-8.43,4.215v11.342c0,2.324-1.891,4.215-4.215,4.215h-6.416
	c-0.392,3.744-2.036,7.218-4.735,9.919c-3.117,3.116-7.258,4.832-11.666,4.832h-8.792v51.07l10.122-17.712
	c2.103-3.68,6.039-5.964,10.274-5.964h1.355c4.235,0,8.172,2.284,10.274,5.964l6.065,10.614l7.991-17.979
	c1.605-3.614,4.901-6.126,8.707-6.817v-13.659l-24.104-12.054l28.318-11.327v37.04c3.806,0.691,7.101,3.201,8.709,6.817
	L516.548,930.898z M470.925,824.729v14.255l4.215-2.108v-10.039L470.925,824.729z M397.169,838.178h2.108v-12.644h-2.108
	c-1.163,0-2.106,0.946-2.106,2.107v8.429C395.063,837.231,396.006,838.178,397.169,838.178z M489.891,874.808v-12.444l-13.826,5.531
	L489.891,874.808z M482.078,908.358c1.663,2.776,2.399,1.249,3.809-1.579c1.133-2.272,2.688-5.383,6.097-5.383
	c3.411,0,4.967,3.11,6.103,5.38c1.424,2.854,2.151,4.383,3.826,1.574l-2.952-6.643c-1.221-2.75-3.953-4.526-6.962-4.526
	s-5.743,1.776-6.965,4.524L482.078,908.358z M475.787,922.516l4.789,8.383h31.359l-8.096-18.218
	c-0.864,0.778-1.965,1.359-3.421,1.359c-3.41,0-4.965-3.107-6.104-5.378c-0.891-1.786-1.583-3.051-2.332-3.051
	c-0.746,0-1.435,1.265-2.327,3.049c-1.134,2.27-2.688,5.38-6.097,5.38c-1.449,0-2.546-0.579-3.406-1.353L475.787,922.516z
	 M436.625,930.898h39.098l-6.445-11.28c-1.043,1.541-2.468,2.852-4.682,2.852c-3.41,0-4.966-3.108-6.104-5.378
	c-0.892-1.787-1.583-3.052-2.333-3.052c-0.745,0-1.436,1.265-2.326,3.05c-1.134,2.27-2.689,5.38-6.097,5.38
	c-2.207,0-3.631-1.307-4.67-2.843L436.625,930.898z M445.498,915.372c0.848,1.69,1.518,2.883,2.238,2.883
	c0.745,0,1.436-1.265,2.326-3.048c1.134-2.271,2.688-5.381,6.097-5.381c3.411,0,4.967,3.11,6.103,5.379
	c0.894,1.785,1.585,3.05,2.333,3.05c0.728,0,1.401-1.195,2.25-2.892l-3.38-5.912c-1.353-2.369-3.887-3.84-6.614-3.84h-1.355
	c-2.727,0-5.263,1.471-6.616,3.84L445.498,915.372z M458.281,855.036h8.429v-46.36h-8.429V855.036z M430.203,817.104h-1.424v6.322
	c0,5.81-4.727,10.536-10.537,10.536h-2.106v12.644h14.067c8.101,0,16.115,1.168,23.864,3.46v-36.422
	C446.315,815.938,438.304,817.104,430.203,817.104z M420.35,850.821h-8.43v5.391c1.373,1.178,4.019,3.039,6.322,3.039
	c1.699,0,2.082-1.159,2.107-2.133V850.821z M424.564,855.453l15.636,3.475c0.616,0.135,1.259,0.057,1.816-0.224
	c0.934-0.465,1.513-1.403,1.513-2.445v-4.313c-4.393-0.741-8.844-1.125-13.326-1.125h-5.639V855.453z M409.813,846.606h2.106
	v-16.858h6.322c3.486,0,6.322-2.836,6.322-6.321v-6.322h-14.751c-3.485,0-6.322,2.837-6.322,6.322v16.858
	C403.491,843.771,406.328,846.606,409.813,846.606z M395.063,869.012v26.063h8.429v-21.38c0-1.607-0.893-3.052-2.328-3.771
	l-0.721-0.36l1.887-3.771l0.72,0.361c2.87,1.438,4.657,4.328,4.657,7.54v22.613l2.402,2.402c1.152,1.152,1.812,2.748,1.812,4.377
	c0,0.889-0.187,1.745-0.532,2.521h19.499v-31.914c0-1.607-0.895-3.052-2.329-3.771l-0.721-0.36l1.886-3.771l0.721,0.361
	c1.623,0.811,2.881,2.097,3.687,3.633h9.765c3.281,0,6.367-1.276,8.684-3.598c2.051-2.053,3.284-4.701,3.543-7.555
	c-1.227-0.739-2.054-2.068-2.054-3.599v-0.557c-2.089-0.653-4.196-1.218-6.323-1.695v3.475c0,2.647-1.471,5.031-3.841,6.216
	c-0.97,0.485-2.039,0.733-3.114,0.733c-0.503,0-1.008-0.055-1.503-0.164l-15.246-3.389c-0.793,1.972-2.564,3.811-5.798,3.811
	c-3.888,0-7.457-2.66-9.059-4.047l-7.483,1.496c-1.063,0.213-2.062,0.626-2.961,1.227
	C396.437,863.679,395.063,866.245,395.063,869.012L395.063,869.012z M397.169,911.933h4.215c1.163,0,2.107-0.943,2.107-2.106v-3.41
	l3.121-1.562c0.677-0.34,1.094-1.014,1.094-1.766c0-0.521-0.211-1.028-0.577-1.397l-2.403-2.402h-9.663v10.537
	C395.063,910.989,396.006,911.933,397.169,911.933z M430.887,930.898v-21.072h-23.181c0,3.485-2.837,6.321-6.322,6.321v14.751
	h12.645v-3.873c0-4.894,3.119-9.222,7.763-10.769l1.334,3.995c-2.921,0.977-4.883,3.697-4.883,6.773v3.873H430.887z"/>
<text transform="matrix(1 0 0 1 796.123 759.5889)" font-family="'MyriadPro-Regular'" font-size="12">Sitios de interés</text>
</svg>
