<?xml version="1.0" encoding="utf-8"?>
<!-- Generator: Adobe Illustrator 23.0.1, SVG Export Plug-In . SVG Version: 6.00 Build 0)  -->
<svg version="1.1" id="Layer_1" xmlns="http://www.w3.org/2000/svg" xmlns:xlink="http://www.w3.org/1999/xlink" x="0px" y="0px"
	 viewBox="0 0 64 64" style="enable-background:new 0 0 64 64;" xml:space="preserve">
<style type="text/css">
	.st0{fill:#6B5240;}
	.st1{fill:#DFE8B8;}
</style>
<g>
	
		<image style="overflow:visible;opacity:0.3;" width="57" height="72" xlink:href="6208D6FED3FAE466.png"  transform="matrix(1 0 0 1 4 -4)">
	</image>
	<g>
		<path class="st0" d="M32,2C19.8,2,9.9,11.9,9.9,24.1C9.9,36.3,32,62,32,62s22.1-25.7,22.1-37.9C54.1,11.9,44.2,2,32,2z"/>
	</g>
</g>
<path class="st1" d="M32,62.7c-0.2,0-0.4-0.1-0.5-0.2C30.5,61.4,9.2,36.4,9.2,24.1C9.2,11.5,19.4,1.3,32,1.3s22.8,10.2,22.8,22.8
	c0,12.3-21.4,37.3-22.3,38.4C32.4,62.6,32.2,62.7,32,62.7z M32,2.7c-11.8,0-21.4,9.6-21.4,21.4c0,10.7,18,32.8,21.4,36.8
	c3.4-4,21.4-26.1,21.4-36.8C53.4,12.3,43.8,2.7,32,2.7z"/>
<path class="st1" d="M42.2,26.4l0.1-0.2c0,0,0.1-0.1,0.2,0c0,0,0.1,0,0.2-0.2c0,0,0.1-0.2,0.3,0.1c0,0,0,0.3,0.1-0.3
	c0,0,0-0.3,0.1-0.5c0,0,1.1-0.4,1.3-1.3c0,0,0.7-0.9,1.6-0.8c0,0,0.8,0,0.1-0.3c0,0-0.9-0.3-1.2-0.3c0,0-0.5-0.1-0.8-0.7
	c0,0-1-1.8-3.4-1.4c0,0-1.5,0.4-1.8,0.5c0,0-0.6,0.2-0.7-0.6c0,0,0.5-1.6-0.7-2.8c0,0-1.2-1.8-2.7-2.1c0,0-1.2-1-2.1-1.2
	c0,0-3.9-2.2-5-2.4c0,0-1.8-0.7-2.4-1c0,0-1.7-0.7-0.2,0.7c0,0-1.4-0.7-1.8-0.9c0,0-1.3-0.5-0.8,0.3c0,0-1.1-0.1,0.1,0.7l1.6,0.8
	c0,0,0.4,0.3-0.1,0.1c-0.5-0.2-0.1,0-0.1,0s-2.5-1.2-1.3-0.2c0,0,0.9,0.5,1.7,0.8c0,0,0.5,0.3,0,0.1c0,0-1-0.3-0.4,0.3
	c0,0,0.2,0.1,0.5,0.3c0,0,0.4,0.1,0,0.1c0,0-0.4,0.4,0.1,0.7c0,0,1,0.6,0.4,0.5c0,0-0.5,0.4,0.3,1c0,0-0.2,0.7,0.5,1.1
	c0,0-0.2,0.7,0.6,1.2c0,0,1,0.3,0.2,0.3c0,0-0.9,0.1-0.1,0.8c0,0-0.6,0.7,0.1,1c0,0-0.4,0.6,0.2,1c0,0-0.3,0.7,0.3,1.1
	c0,0-0.1,0.5,0.2,0.7c0,0-0.1,0.4,0.4,0.6c0,0-0.1,0.4,0.3,0.6c0,0-1,0.5-0.6,0.9c0,0-0.3,0.4-0.6,0.5c0,0-0.7,0.4-0.2,0.2
	c0,0,0.2,0.1-0.1,0.1c0,0-0.5,0.4-0.2,0.3c0,0-0.5,0.4-0.7,0.5c0,0-0.7,0.3-0.5,0.4c0,0-0.5,0.4-0.1,0.2l0.9-0.2c0,0-0.3,0.3,0,0.3
	l-0.7,0.5c0,0-0.5,0.5,0.1,0.2l0.6-0.3c0,0,0.2,0.1,0.3,0.1c0,0-3.7,2.3-4.6,2.8c0,0-2.4,1.3-2.7,1.5l-1.2,0.7c0,0-0.6,0.5,0.2,0.1
	l1-0.4l-0.5,0.5c0,0-0.4,0.5,0.1,0.3c0,0,1-0.7,1.4-0.8c0,0,0.8-0.3,0,0.1c0,0-1.1,0.6-1.3,0.9c0,0-0.5,0.9,0.2,0.5
	c0,0-0.3,0.7,0.8,0.2c0,0,4.9-2.9,5.6-3.3c0,0,0.5-0.2,0.8-0.3c0,0,0.5-0.1,0.3,0c0,0-0.5,0.4,0.1,0.2l0.7-0.2c0,0,0,0.3,0.4,0.1
	l0.9-0.3c0,0-0.4,0.4,0.3,0.2l0.8-0.4c0,0,0.2,0,0.3-0.1c0,0,0.2,0.1-0.1,0.2c0,0-0.1,0,0.1,0c0,0,0.1,0.1-0.1,0.2c0,0,0.1,0,0.3,0
	c0,0,0.1,0.1-0.1,0.2l0.4-0.2l-0.3,0.4l0.4-0.1l0,0.1l0.3-0.2c0,0-0.1,0.3-0.2,0.4l0.5-0.2c0,0,0,0.4-0.1,0.4l0.4-0.1l-0.2,0.3
	l0.3-0.2l-0.1,0.2l0.4,0l0.1,0.1l0.6-0.3c0,0,0.1,0.1-0.1,0.3l0.3,0c0,0,0.1,0.2-0.1,0.3l0.3-0.1c0,0,0.1,0.1,0,0.2l0.3-0.2l0.1,0.2
	l0.2-0.2l0.1,0.2c0,0,0.3-0.3,0.8-0.8c0.5-0.5,0.1,0.4,0.1,0.4L35,32c0,0,0.4-0.1,0.3,0.2l0.1-0.3c0,0,0.4,0.1,0.4,0.3l0.2-0.4
	c0,0,0.1,0.4,0,0.5l0.4-0.5c0,0,0.1,0.2,0,0.4l0.4-0.4c0,0,0.1,0.2,0,0.4l0.3-0.4c0,0,0,0.2,0,0.3l0.5-0.7c0,0,0.1,0.1,0.1,0.2
	l0.2-0.4c0,0,0.2,0.2,0.1,0.3l0.2-0.5c0,0,0.1,0.2,0.1,0.3c0,0.1,0-0.1,0-0.1l0.3-0.7c0,0,0,0.3,0,0.5l0.1-0.4l0.2,0.2l0.1-0.7
	c0,0,0.1,0.6,0.1,0.7l0.2-0.7c0,0,0.2,0.5,0.2,0.6l0.1-1.2l0.4,0.6c0,0,0-0.2,0-0.6c0,0,0.2-0.3,0.4,0c0,0,0.1-0.4,0-0.7
	c0,0,0.1-0.5,0.1-0.6c0,0,0.2-0.3,0.3-0.3c0,0,0.1-0.1,0.1-0.1c0,0,0.1,0.2,0.1-0.2c0,0,0.1-0.1,0.2,0.1c0,0,0-0.1,0-0.4
	c0,0,0.2,0.1,0.2,0.2l0.1-0.3l0.2,0.2c0,0,0,0,0-0.3l0.1,0.1c0,0,0.1-0.2,0.2-0.5C42,26.6,41.9,26.3,42.2,26.4z"/>
</svg>
